<svg width="26" height="30" viewBox="0 0 26 30" fill="none" xmlns="http://www.w3.org/2000/svg">
<path d="M9.02019 26.7451C9.57632 26.7451 10.0271 26.2008 10.0271 25.5294C10.0271 24.858 9.57632 24.3137 9.02019 24.3137C8.46407 24.3137 8.01324 24.858 8.01324 25.5294C8.01324 26.2008 8.46407 26.7451 9.02019 26.7451Z" stroke="white" stroke-linecap="round" stroke-linejoin="round"/>
<path d="M20.0966 26.7451C20.6527 26.7451 21.1036 26.2008 21.1036 25.5294C21.1036 24.858 20.6527 24.3137 20.0966 24.3137C19.5405 24.3137 19.0897 24.858 19.0897 25.5294C19.0897 26.2008 19.5405 26.7451 20.0966 26.7451Z" stroke="white" stroke-linecap="round" stroke-linejoin="round"/>
<path d="M3.02887 2.49216H5.04277L7.72125 17.591C7.81951 18.144 8.07436 18.6383 8.44194 18.9889C8.80951 19.3394 9.26682 19.5243 9.73515 19.5118H19.5831C20.0414 19.5109 20.4858 19.3213 20.8428 18.9742C21.1998 18.6272 21.4481 18.1435 21.5467 17.6031L23.2081 8.57059H6.1202" stroke="white" stroke-linecap="round" stroke-linejoin="round"/>
</svg>
