<svg width="157" height="81" viewBox="0 0 157 81" fill="none" xmlns="http://www.w3.org/2000/svg">
<path d="M37.6729 60V30.9091H47.914C49.9546 30.9091 51.6377 31.2595 52.9631 31.9602C54.2885 32.6515 55.2754 33.5843 55.9239 34.7585C56.5723 35.9233 56.8965 37.2159 56.8965 38.6364C56.8965 39.8864 56.6724 40.9186 56.2242 41.733C55.7856 42.5473 55.2039 43.1913 54.4792 43.6648C53.7641 44.1383 52.9869 44.4886 52.1478 44.7159V45C53.0441 45.0568 53.9452 45.3693 54.8511 45.9375C55.757 46.5057 56.5151 47.3201 57.1253 48.3807C57.7356 49.4413 58.0407 50.7386 58.0407 52.2727C58.0407 53.7311 57.707 55.0426 57.0395 56.2074C56.372 57.3722 55.3184 58.2955 53.8785 58.9773C52.4386 59.6591 50.5649 60 48.2573 60H37.6729ZM41.2201 56.875H48.2573C50.5744 56.875 52.2193 56.4299 53.1919 55.5398C54.1741 54.6401 54.6652 53.5511 54.6652 52.2727C54.6652 51.2879 54.4125 50.3788 53.9071 49.5455C53.4017 48.7027 52.6818 48.0303 51.7473 47.5284C50.8128 47.017 49.7067 46.7614 48.429 46.7614H41.2201V56.875ZM41.2201 43.6932H47.7996C48.8676 43.6932 49.8307 43.4848 50.6889 43.0682C51.5566 42.6515 52.2432 42.0644 52.7485 41.3068C53.2635 40.5492 53.5209 39.6591 53.5209 38.6364C53.5209 37.358 53.0727 36.2737 52.1764 35.3835C51.2801 34.4839 49.8593 34.0341 47.914 34.0341H41.2201V43.6932Z" fill="white"/>
<path d="M69.8767 60.5114C68.4845 60.5114 67.221 60.2509 66.0863 59.7301C64.9516 59.1998 64.0505 58.4375 63.383 57.4432C62.7155 56.4394 62.3818 55.2273 62.3818 53.8068C62.3818 52.5568 62.6297 51.5436 63.1255 50.767C63.6214 49.9811 64.2841 49.3655 65.1137 48.9205C65.9433 48.4754 66.8587 48.1439 67.8599 47.9261C68.8707 47.6989 69.8862 47.5189 70.9065 47.3864C72.2415 47.2159 73.3238 47.0881 74.1534 47.0028C74.9925 46.9081 75.6027 46.7519 75.9842 46.5341C76.3751 46.3163 76.5706 45.9375 76.5706 45.3977V45.2841C76.5706 43.8826 76.1844 42.7936 75.412 42.017C74.6492 41.2405 73.4906 40.8523 71.9363 40.8523C70.3248 40.8523 69.0614 41.2026 68.146 41.9034C67.2306 42.6042 66.5869 43.3523 66.215 44.1477L63.0111 43.0114C63.5833 41.6856 64.3461 40.6534 65.2996 39.9148C66.2627 39.1667 67.3116 38.6458 68.4464 38.3523C69.5906 38.0492 70.7158 37.8977 71.8219 37.8977C72.5275 37.8977 73.3381 37.983 74.2535 38.1534C75.1784 38.3144 76.07 38.6506 76.9282 39.1619C77.7959 39.6733 78.5158 40.4451 79.088 41.4773C79.6601 42.5095 79.9462 43.892 79.9462 45.625V60H76.5706V57.0455H76.399C76.1701 57.5189 75.7887 58.0256 75.2547 58.5653C74.7207 59.1051 74.0103 59.5644 73.1235 59.9432C72.2367 60.322 71.1544 60.5114 69.8767 60.5114ZM70.3916 57.5C71.7266 57.5 72.8518 57.2396 73.7672 56.7187C74.6921 56.1979 75.3882 55.5256 75.8554 54.7017C76.3322 53.8778 76.5706 53.0114 76.5706 52.1023V49.0341C76.4276 49.2045 76.1129 49.3608 75.6266 49.5028C75.1498 49.6354 74.5968 49.7538 73.9674 49.858C73.3476 49.9527 72.7421 50.0379 72.1509 50.1136C71.5692 50.1799 71.0972 50.2367 70.7349 50.2841C69.8576 50.3977 69.0376 50.5824 68.2747 50.8381C67.5214 51.0843 66.9111 51.4583 66.4439 51.9602C65.9862 52.4526 65.7573 53.125 65.7573 53.9773C65.7573 55.142 66.1912 56.0227 67.0589 56.6193C67.9362 57.2064 69.0471 57.5 70.3916 57.5Z" fill="white"/>
<path d="M101.097 68.1818V56.6477H100.811C100.563 57.0455 100.21 57.5473 99.7526 58.1534C99.2949 58.75 98.6417 59.285 97.7931 59.7585C96.9444 60.2225 95.8144 60.4545 94.4032 60.4545C92.5724 60.4545 90.9561 59.9953 89.5544 59.0767C88.1527 58.1487 87.0561 56.8419 86.2646 55.1562C85.4732 53.4612 85.0775 51.4583 85.0775 49.1477C85.0775 46.8561 85.4732 44.8674 86.2646 43.1818C87.0561 41.4962 88.1574 40.1941 89.5687 39.2756C90.9799 38.357 92.6105 37.8977 94.4604 37.8977C95.8907 37.8977 97.0207 38.1345 97.8503 38.608C98.6894 39.072 99.3283 39.6023 99.7669 40.1989C100.215 40.786 100.563 41.2689 100.811 41.6477H101.212V38.1818H104.473V68.1818H101.097ZM94.8609 57.4432C96.2149 57.4432 97.3592 57.0928 98.2937 56.392C99.2281 55.6818 99.9385 54.7017 100.425 53.4517C100.911 52.1922 101.154 50.7386 101.154 49.0909C101.154 47.4621 100.916 46.0369 100.439 44.8153C99.9624 43.5843 99.2567 42.6278 98.3223 41.946C97.3878 41.2547 96.234 40.9091 94.8609 40.9091C93.4306 40.9091 92.2386 41.2737 91.2851 42.0028C90.3411 42.7225 89.6307 43.7027 89.1539 44.9432C88.6866 46.1742 88.453 47.5568 88.453 49.0909C88.453 50.6439 88.6914 52.0549 89.1682 53.3239C89.6545 54.5833 90.3697 55.5871 91.3137 56.3352C92.2672 57.0739 93.4496 57.4432 94.8609 57.4432Z" fill="white"/>
<path d="M119.863 60.4545C117.746 60.4545 115.92 59.9905 114.385 59.0625C112.859 58.125 111.682 56.8182 110.852 55.142C110.032 53.4564 109.622 51.4962 109.622 49.2614C109.622 47.0265 110.032 45.0568 110.852 43.3523C111.682 41.6383 112.835 40.303 114.313 39.3466C115.801 38.3807 117.536 37.8977 119.52 37.8977C120.664 37.8977 121.794 38.0871 122.91 38.4659C124.025 38.8447 125.041 39.4602 125.956 40.3125C126.872 41.1553 127.601 42.2727 128.145 43.6648C128.688 45.0568 128.96 46.7708 128.96 48.8068V50.2273H112.025V47.3295H125.527C125.527 46.0985 125.279 45 124.783 44.0341C124.297 43.0682 123.601 42.3059 122.695 41.7472C121.799 41.1884 120.74 40.9091 119.52 40.9091C118.175 40.9091 117.012 41.2405 116.03 41.9034C115.057 42.5568 114.309 43.4091 113.784 44.4602C113.26 45.5114 112.997 46.6383 112.997 47.8409V49.7727C112.997 51.4205 113.283 52.8172 113.856 53.9631C114.437 55.0994 115.243 55.9659 116.273 56.5625C117.303 57.1496 118.499 57.4432 119.863 57.4432C120.75 57.4432 121.551 57.3201 122.266 57.0739C122.991 56.8182 123.615 56.4394 124.14 55.9375C124.664 55.4261 125.069 54.7917 125.355 54.0341L128.617 54.9432C128.273 56.0417 127.696 57.0076 126.886 57.8409C126.075 58.6648 125.074 59.3087 123.882 59.7727C122.69 60.2273 121.351 60.4545 119.863 60.4545Z" fill="white"/>
<path d="M134.095 60V38.1818H137.356V41.4773H137.585C137.985 40.3977 138.71 39.5218 139.759 38.8494C140.808 38.1771 141.99 37.8409 143.306 37.8409C143.554 37.8409 143.864 37.8456 144.236 37.8551C144.608 37.8646 144.889 37.8788 145.08 37.8977V41.3068C144.965 41.2784 144.703 41.2358 144.293 41.179C143.892 41.1127 143.468 41.0795 143.02 41.0795C141.952 41.0795 140.998 41.3021 140.159 41.7472C139.33 42.1828 138.672 42.7888 138.185 43.5653C137.709 44.3324 137.47 45.2083 137.47 46.1932V60H134.095Z" fill="white"/>
<g clip-path="url(#clip0_1_148)">
<path d="M148.233 5L164.245 33.8861L154.012 39.5583L138 10.6723L148.233 5Z" fill="#9DED1A" fill-opacity="0.35"/>
<path d="M63.5034 63L68.8512 90.5121L58.3478 92.5537L53 65.0417L63.5034 63Z" fill="#4BC8EF" fill-opacity="0.65"/>
<path d="M24.305 12.6525C24.305 15.222 22.222 17.305 19.6525 17.305C17.083 17.305 15 15.222 15 12.6525C15 10.083 17.083 8 19.6525 8C22.222 8 24.305 10.083 24.305 12.6525Z" fill="#03A3F5" fill-opacity="0.75"/>
<path d="M65.305 43.1525C65.305 46.5504 62.5504 49.305 59.1525 49.305C55.7546 49.305 53 46.5504 53 43.1525C53 39.7546 55.7546 37 59.1525 37C62.5504 37 65.305 39.7546 65.305 43.1525Z" fill="#DCBCFA" fill-opacity="0.65"/>
<path d="M95.305 13.1525C95.305 15.9981 92.9981 18.305 90.1525 18.305C87.3069 18.305 85 15.9981 85 13.1525C85 10.3069 87.3069 8 90.1525 8C92.9981 8 95.305 10.3069 95.305 13.1525Z" fill="#03A3F5" fill-opacity="0.35"/>
<path d="M20.1723 60.6354L26.9125 61.703L27.98 68.4431L21.8996 71.5413L17.0742 66.7158L20.1723 60.6354Z" fill="#DCBCFA" fill-opacity="0.85"/>
<path d="M55.6732 25.3381L47.9868 23.9828L45.3173 16.6485L50.3343 10.6695L58.0207 12.0248L60.6902 19.3591L55.6732 25.3381Z" fill="#C9FCBE" fill-opacity="0.6"/>
<path d="M101.693 80.4075L89 77.477L90.9571 69L103.65 71.9305L101.693 80.4075Z" fill="#BA3E03" fill-opacity="0.35"/>
</g>
<defs>
<clipPath id="clip0_1_148">
<rect width="285.973" height="81" fill="white" transform="translate(-129)"/>
</clipPath>
</defs>
</svg>
