<svg width="25" height="30" viewBox="0 0 25 30" fill="none" xmlns="http://www.w3.org/2000/svg">
<path d="M12.8425 2.43137H12.3995C11.8654 2.43137 11.3531 2.68753 10.9754 3.1435C10.5978 3.59947 10.3856 4.2179 10.3856 4.86274V5.08156C10.3852 5.50793 10.292 5.92669 10.1153 6.29583C9.93852 6.66497 9.68449 6.97151 9.37864 7.1847L8.94565 7.48862C8.6395 7.70202 8.29221 7.81436 7.9387 7.81436C7.58519 7.81436 7.2379 7.70202 6.93175 7.48862L6.78071 7.39137C6.31859 7.06953 5.76957 6.98222 5.25418 7.1486C4.73879 7.31499 4.29914 7.72147 4.03174 8.27882L3.81021 8.74078C3.54363 9.2987 3.47132 9.96152 3.60913 10.5838C3.74695 11.206 4.08363 11.7368 4.54528 12.0596L4.69633 12.1812C5.0007 12.3933 5.25379 12.6979 5.43044 13.0648C5.60709 13.4316 5.70115 13.8478 5.70327 14.2721V14.8921C5.70468 15.3206 5.6123 15.7419 5.43547 16.1133C5.25864 16.4848 5.00366 16.7932 4.69633 17.0074L4.54528 17.1169C4.08363 17.4397 3.74695 17.9705 3.60913 18.5927C3.47132 19.2149 3.54363 19.8778 3.81021 20.4357L4.03174 20.8976C4.29914 21.455 4.73879 21.8615 5.25418 22.0279C5.76957 22.1942 6.31859 22.1069 6.78071 21.7851L6.93175 21.6878C7.2379 21.4744 7.58519 21.3621 7.9387 21.3621C8.29221 21.3621 8.6395 21.4744 8.94565 21.6878L9.37864 21.9918C9.68449 22.2049 9.93852 22.5115 10.1153 22.8806C10.292 23.2498 10.3852 23.6685 10.3856 24.0949V24.3137C10.3856 24.9586 10.5978 25.577 10.9754 26.033C11.3531 26.4889 11.8654 26.7451 12.3995 26.7451H12.8425C13.3767 26.7451 13.8889 26.4889 14.2666 26.033C14.6443 25.577 14.8564 24.9586 14.8564 24.3137V24.0949C14.8568 23.6685 14.95 23.2498 15.1268 22.8806C15.3035 22.5115 15.5575 22.2049 15.8634 21.9918L16.2964 21.6878C16.6025 21.4744 16.9498 21.3621 17.3033 21.3621C17.6568 21.3621 18.0041 21.4744 18.3103 21.6878L18.4613 21.7851C18.9234 22.1069 19.4725 22.1942 19.9878 22.0279C20.5032 21.8615 20.9429 21.455 21.2103 20.8976L21.4318 20.4235C21.6984 19.8656 21.7707 19.2028 21.6329 18.5805C21.4951 17.9583 21.1584 17.4275 20.6967 17.1047L20.5457 17.0074C20.2384 16.7932 19.9834 16.4848 19.8066 16.1133C19.6297 15.7419 19.5373 15.3206 19.5388 14.8921V14.2843C19.5373 13.8559 19.6297 13.4346 19.8066 13.0631C19.9834 12.6917 20.2384 12.3832 20.5457 12.169L20.6967 12.0596C21.1584 11.7368 21.4951 11.206 21.6329 10.5838C21.7707 9.96152 21.6984 9.2987 21.4318 8.74078L21.2103 8.27882C20.9429 7.72147 20.5032 7.31499 19.9878 7.1486C19.4725 6.98222 18.9234 7.06953 18.4613 7.39137L18.3103 7.48862C18.0041 7.70202 17.6568 7.81436 17.3033 7.81436C16.9498 7.81436 16.6025 7.70202 16.2964 7.48862L15.8634 7.1847C15.5575 6.97151 15.3035 6.66497 15.1268 6.29583C14.95 5.92669 14.8568 5.50793 14.8564 5.08156V4.86274C14.8564 4.2179 14.6443 3.59947 14.2666 3.1435C13.8889 2.68753 13.3767 2.43137 12.8425 2.43137Z" stroke="white" stroke-linecap="round" stroke-linejoin="round"/>
<path d="M12.6033 18.2353C14.2717 18.2353 15.6242 16.6024 15.6242 14.5882C15.6242 12.574 14.2717 10.9412 12.6033 10.9412C10.9349 10.9412 9.58246 12.574 9.58246 14.5882C9.58246 16.6024 10.9349 18.2353 12.6033 18.2353Z" stroke="white" stroke-linecap="round" stroke-linejoin="round"/>
</svg>
